<svg xmlns="http://www.w3.org/2000/svg" viewBox="0 0 110.95 39.01"><g id="Layer_2" data-name="Layer 2"><g id="Capa_1" data-name="Capa 1"><path class="cls-1" style="fill:#ff0000;" d="M13,39H2.27c-.33,0-.36.07-.29-.35A45.19,45.19,0,0,1,5,28.09a52.31,52.31,0,0,1,4.71-8.91,43.14,43.14,0,0,1,4.47-5.61,41.37,41.37,0,0,1,7.15-6.13,30.34,30.34,0,0,1,6.88-3.5,19.23,19.23,0,0,1,4-1,21.27,21.27,0,0,1,2.25-.16l.61,0a30.5,30.5,0,0,1,7.43.94A41.72,41.72,0,0,1,52.63,7.85a56.28,56.28,0,0,1,9.62,6.8l1.15,1.06c.15.14.15.15,0,.28l-.67.52c-.15.11-.15.11-.29,0-.57-.42-1.14-.82-1.72-1.22a42.1,42.1,0,0,0-7-3.87,28.06,28.06,0,0,0-6.29-1.85,20.31,20.31,0,0,0-2.2-.26,20.69,20.69,0,0,0-2.49,0,19,19,0,0,0-6.14,1.35,21.57,21.57,0,0,0-3.25,1.56,18.42,18.42,0,0,0-3.51,2.7A19.72,19.72,0,0,0,25,22.63a26.56,26.56,0,0,0-1.09,4.3q-.25,1.58-.36,3.18a32.18,32.18,0,0,0-.07,3.54,34.74,34.74,0,0,0,.55,5.19c0,.16,0,.16-.13.17H13Z"/><path class="cls-1" style="fill:#ff0000;" d="M41.12,34.25a.6.6,0,0,0,0,.29v4.2c0,.29,0,.27-.26.27H36c-.27,0-.27,0-.27-.27V19.22c0-.19,0-.19.19-.19H46.1a5.37,5.37,0,0,1,1.64.32,6.82,6.82,0,0,1,2.88,1.78A6.11,6.11,0,0,1,52.15,24a9.38,9.38,0,0,1,.12,3.3,7,7,0,0,1-.79,2.55,5.43,5.43,0,0,1-3.77,2.78.27.27,0,0,0-.21.08q3.07,3.09,6.14,6.2c0,.08-.1.06-.15.06H45.91a.42.42,0,0,1-.33-.17L41.39,34.5A1.31,1.31,0,0,0,41.12,34.25Zm0-7.92v2.16c0,.08,0,.12.13.12h4a.59.59,0,0,0,.34-.1,2.09,2.09,0,0,0,.8-.94,3.22,3.22,0,0,0,0-2.51,2,2,0,0,0-.77-.92.64.64,0,0,0-.34-.09H41.32c-.23,0-.23,0-.23.22Z"/><path class="cls-1" style="fill:#ff0000;" d="M70.87,31.3v7.42c0,.3,0,.29-.28.29h-4.8c-.22,0-.22,0-.22-.23v-3c0-.31,0-.27-.27-.27H60.68c-.25,0-.25,0-.25.24v3.12c0,.09,0,.14-.13.14H55.12c-.1,0-.15,0-.15-.15V24.55a5.57,5.57,0,0,1,1.73-4.06,4.58,4.58,0,0,1,2.8-1.28,6.34,6.34,0,0,1,.76,0c1.77,0,3.54,0,5.32,0a5.65,5.65,0,0,1,3.71,1.42,4.58,4.58,0,0,1,1.49,2.79,6.74,6.74,0,0,1,.09,1.19ZM63,29.85h2.33c.22,0,.23,0,.23-.23V25.09a1.09,1.09,0,0,0-.54-.94,1.44,1.44,0,0,0-.75-.23q-1.24,0-2.49,0a1.73,1.73,0,0,0-.79.24,1,1,0,0,0-.56.94v4.65a.09.09,0,0,0,.1.09H63Z"/><path class="cls-1" style="fill:#ff0000;" d="M101.42,39H96.84c-.27,0-.28,0-.28-.27V34.19s0-.08,0-.11,0-.15.14-.15h8.82c.34,0,.31,0,.31-.3V31.71c0-.27,0-.26-.27-.26-1.33,0-2.65,0-4,0a5.35,5.35,0,0,1-4.5-2.4,4.72,4.72,0,0,1-.79-2.52,19.42,19.42,0,0,1,0-2.53,4.94,4.94,0,0,1,2-3.62,5.44,5.44,0,0,1,2.91-1.19h8.77c.29,0,.28,0,.28.28V24c0,.25,0,.25-.25.25h-8.44c-.43,0-.36-.05-.37.37v1.77c0,.21,0,.21.22.21,1.45,0,2.91,0,4.37,0a5.19,5.19,0,0,1,4,1.86,4.9,4.9,0,0,1,1.16,2.72,15.89,15.89,0,0,1,0,1.69,13,13,0,0,1,0,1.39,5,5,0,0,1-3,4.21,5.19,5.19,0,0,1-2.3.51Z"/><path class="cls-1" style="fill:#ff0000;" d="M81.37,29.09v-9.6c0-.36,0-.32.33-.32h5.14c.19,0,.19,0,.19.2V33.55c0,.37,0,.33.34.33h7c.29,0,.28,0,.28.28v4.6c0,.25,0,.25-.25.25H81.55c-.17,0-.17,0-.18-.19V29.09Z"/><path class="cls-1" style="fill:#ff0000;" d="M79,29.08V38.7c0,.33,0,.31-.3.31H73.63c-.3,0-.28,0-.28-.28V19.41c0-.24,0-.24.25-.24h5.34c.07,0,.1,0,.1.11v9.8Z"/><path class="cls-1" style="fill:#ff0000;" d="M4.57,25.55a.49.49,0,0,1,0,.11c-.43,1-.87,2-1.27,3.06-.06.14-.07.14-.22.09L.14,27.74c-.16,0-.16-.06-.11-.2.4-1,.84-2.06,1.29-3.08,0-.11.1-.12.2-.09l2.93,1.08S4.57,25.47,4.57,25.55Z"/><path class="cls-1" style="fill:#ff0000;" d="M24.93,33.45a.5.5,0,0,1,.26,0l2.55.92a.3.3,0,0,1,.24.3c.13,1,.33,2.05.56,3.06a1,1,0,0,1,.05.3c-.06,0-.11,0-.15,0-1-.36-2-.73-3-1.08a.27.27,0,0,1-.19-.24c-.12-.83-.21-1.66-.26-2.5A7.09,7.09,0,0,1,24.93,33.45Z"/><path class="cls-1" style="fill:#ff0000;" d="M27.62,28c-.09,0-.13,0-.17-.07l-2-1.54a.26.26,0,0,1-.11-.3c.2-.85.4-1.69.67-2.51,0-.07.05-.14.07-.21s.07-.18.22-.06l1.73,1.36a.22.22,0,0,1,.09.28c-.18.72-.32,1.44-.43,2.18,0,.17,0,.35-.07.53S27.63,27.91,27.62,28Z"/><path class="cls-1" style="fill:#ff0000;" d="M13,13c0,.07-.06.1-.1.15-.42.45-.83.91-1.23,1.39l-.43.54c-.11.13-.11.13-.23,0L9.13,13.45c-.12-.11-.12-.12,0-.25.59-.63,1.2-1.24,1.82-1.85.12-.11.13-.11.26,0l1.72,1.51S13,12.92,13,13Z"/><path class="cls-1" style="fill:#ff0000;" d="M30.76,19.3l-.59-.9-.69-1a.17.17,0,0,1,0-.22,17.42,17.42,0,0,1,1.6-1.72l.06,0a.23.23,0,0,1,.09.11l1.08,1.62a.18.18,0,0,1,0,.27,14.69,14.69,0,0,0-1.47,1.77A.75.75,0,0,0,30.76,19.3Z"/><path class="cls-1" style="fill:#ff0000;" d="M23.62,4.6a.06.06,0,0,1,0,.08l-.09.06c-.62.32-1.22.67-1.81,1-.18.11-.18.11-.29-.07-.36-.53-.71-1.07-1.06-1.61-.11-.17-.11-.17.07-.28.6-.35,1.21-.68,1.83-1,.17-.09.17-.08.28.08l1,1.61S23.61,4.57,23.62,4.6Z"/><path class="cls-1" style="fill:#ff0000;" d="M48.06,4.47a.28.28,0,0,1-.2,0c-.76-.3-1.53-.59-2.31-.86-.2-.06-.19-.06-.18-.26,0-.4,0-.81.07-1.21,0-.13,0-.27,0-.38a.07.07,0,0,1,.1,0,16.35,16.35,0,0,1,2.35.82c.32.14.26.1.25.41,0,.49-.06,1-.09,1.48A.24.24,0,0,1,48.06,4.47Z"/><path class="cls-1" style="fill:#ff0000;" d="M39.45,12.92c0,.07-.07.08-.12.1-.22.08-.45.15-.67.24-.49.18-1,.39-1.45.61C37,14,37,14,37,13.76c-.18-.52-.35-1-.53-1.57,0-.17,0-.17.1-.24a20.42,20.42,0,0,1,2.15-.78c.16,0,.16,0,.21.1.18.52.35,1,.52,1.55Z"/><path class="cls-1" style="fill:#ff0000;" d="M48.13,11.65c0,.24,0,.48-.05.72s0,.18-.18.15q-.55-.11-1.11-.18c-.43-.06-.86-.09-1.29-.12-.2,0-.2,0-.19-.21l.09-1.36c0-.19,0-.2.21-.19a22,22,0,0,1,2.42.32.16.16,0,0,1,.14.2c0,.23,0,.45,0,.67Z"/><path class="cls-1" style="fill:#ff0000;" d="M32.81,1.8c-.21,0-.21,0-.28-.2-.13-.41-.27-.83-.4-1.25-.06-.18,0-.19.14-.21A21.8,21.8,0,0,1,34.55,0c.21,0,.21,0,.28.2l.42,1.28c.07.22.07.23-.16.23-.59,0-1.18,0-1.77.05Z"/></g></g></svg>
