<svg xmlns="http://www.w3.org/2000/svg" viewBox="0 0 785.26 745.74"><defs><style>.cls-1{fill:#764bbc;}</style></defs><g id="Layer_2" data-name="Layer 2"><g id="Layer_1-2" data-name="Layer 1"><path class="cls-1" d="M556.12,745.74a7.57,7.57,0,0,0-1.66-.52,300.17,300.17,0,0,1-33-4.4A314.22,314.22,0,0,1,462.13,723c-5.91-2.42-11.74-5-18.08-7.76,15.49-11.93,30.82-23.38,45-36.27,3.4,1.39,6.71,2.78,10,4.08a255.15,255.15,0,0,0,53.35,14.31,215.58,215.58,0,0,0,39.88,2.72c22.27-.67,43.77-4.9,64.06-14.41a139.73,139.73,0,0,0,54.19-45.06c9.29-12.72,17-26.33,21.86-41.38A123.6,123.6,0,0,0,738,572.29c2.09-22.53-1.36-44.31-9-65.47a257.08,257.08,0,0,0-51.79-85.64c-20.17-22.29-43.54-40.65-69.1-56.34A385.22,385.22,0,0,0,523,325.64a366.29,366.29,0,0,0-51.43-12.35A339.37,339.37,0,0,0,432.78,309c-7.75-.37-15.5-.75-23.24-.77-6.46,0-12.93.46-19.45.72-6.5,14.27-16.77,24.56-31.31,30.27a54.22,54.22,0,0,1-35.27,1.74,56,56,0,0,1-.71-107.73c24.25-7.1,51.48,2.75,65.15,27.65a13.08,13.08,0,0,0,1.57.08,374.2,374.2,0,0,1,42.89.51c8.77.59,17.54,1.19,26.28,2.15A433,433,0,0,1,508.25,272a407.71,407.71,0,0,1,101.07,37.39,378,378,0,0,1,75,52.22A365.4,365.4,0,0,1,739,422.18a251.1,251.1,0,0,1,41,91.24,220.52,220.52,0,0,1,4.6,31,205.19,205.19,0,0,1,.34,28.27c-1.39,23-6.29,45.22-16.8,65.95a157.93,157.93,0,0,1-23.43,33.81c-23.33,26.08-51.69,44.8-84.19,57.41a225.42,225.42,0,0,1-52.79,13.51c-6.49.84-13,1.3-19.54,2a15.91,15.91,0,0,0-1.82.39Z"/><path class="cls-1" d="M593.56,246c-16.74-5.77-33.26-11-50.13-15.22-.21-2-.42-3.87-.61-5.76a214.8,214.8,0,0,0-7.31-36.37A268.5,268.5,0,0,0,505.7,120a184.14,184.14,0,0,0-28.58-36C462.53,70,445.91,59.19,426.4,53.16a119.53,119.53,0,0,0-24.88-4.76c-13.44-1.17-26.66.44-39.77,3.08A194.85,194.85,0,0,0,308.2,70.54,140.49,140.49,0,0,0,273,96.45c-7.6,7.83-14,16.65-20.05,25.68a264.59,264.59,0,0,0-38.49,90.08,291.39,291.39,0,0,0-6,37.35c-.82,8.75-1.2,17.54-1.62,26.32-.26,5.43-.39,10.87-.31,16.3a412.88,412.88,0,0,0,3.09,45.67,365.21,365.21,0,0,0,26,96.64,392.35,392.35,0,0,0,22.7,45.17c.32.55.69,1.08,1.18,1.85,1.07-.09,2.25-.14,3.41-.28,27.53-3.15,54.6,15.49,60.5,44.29A56,56,0,1,1,213.5,546.85a54.78,54.78,0,0,1,5.94-36.65,3.43,3.43,0,0,0-.09-3.9,484.54,484.54,0,0,1-27.13-54.22A441.13,441.13,0,0,1,165.47,366q-3.56-17.88-5.55-36a375.33,375.33,0,0,1-1.87-56.29,370.11,370.11,0,0,1,15.57-92.63c5.65-18.69,12.26-37,21.18-54.42A248.14,248.14,0,0,1,247,57.18c24.09-22.34,51.6-38.93,83.09-48.66A178.78,178.78,0,0,1,368.52.89C374,.45,379.52.07,385,0a168.38,168.38,0,0,1,64.55,12.31,193.43,193.43,0,0,1,58.21,36.49C528,67,544.13,88.29,557,112.11c13.87,25.63,23.28,52.87,29.37,81.32,2.38,11.1,4.19,22.29,5.58,33.55.66,5.39,1.07,10.82,1.57,16.23C593.62,244,593.56,244.78,593.56,246Z"/><path class="cls-1" d="M116.38,349.7c3.81,17.4,8,34.28,13.33,50.91-2.51,2-5,4-7.33,6-22.57,19.05-41.61,41.07-56.27,66.79a170.61,170.61,0,0,0-19.77,52.21,138.12,138.12,0,0,0-2.5,33.4c1.29,25.46,9.33,48.77,22.44,70.51,17.91,29.71,43.94,48.69,76.83,58.72a185.83,185.83,0,0,0,35,6.79A256.75,256.75,0,0,0,215,696.2a262.34,262.34,0,0,0,47.67-6.34c28.75-6.51,55.68-17.6,81.43-31.79a482.27,482.27,0,0,0,56-35.6c31.5-23.49,58.57-51.2,80.11-84.17a330.16,330.16,0,0,0,17.25-29.62c.4-.78.76-1.57,1.11-2.29-1.85-2.27-3.71-4.36-5.35-6.61a55,55,0,0,1-10.61-28.6A55.95,55.95,0,0,1,593.07,455c4.07,19.4-1,36.48-14.53,50.85a53,53,0,0,1-31.35,16.23,4.18,4.18,0,0,0-3.49,2.7A403.39,403.39,0,0,1,494.93,601a380.45,380.45,0,0,1-75.54,70.82c-39.36,27.89-82.57,47.51-129.07,60-13.27,3.57-26.66,6.61-40.21,8.92A220.29,220.29,0,0,1,223,743.88c-6.7.31-13.42.76-20.12.69-31.63-.33-62.28-5.87-91.59-18-24.91-10.31-47.12-24.65-65.62-44.43a154.6,154.6,0,0,1-28.75-44.5A202.65,202.65,0,0,1,2.57,587.54a212.76,212.76,0,0,1-2.4-41.35,223.77,223.77,0,0,1,20.66-85.4A256.13,256.13,0,0,1,61.2,399.25,329.14,329.14,0,0,1,114.38,351C114.94,350.57,115.55,350.23,116.38,349.7Z"/></g></g></svg>
